<?xml version="1.0" encoding="UTF-8" standalone="no"?>
<svg
   xmlns:dc="http://purl.org/dc/elements/1.1/"
   xmlns:cc="http://creativecommons.org/ns#"
   xmlns:rdf="http://www.w3.org/1999/02/22-rdf-syntax-ns#"
   xmlns:svg="http://www.w3.org/2000/svg"
   xmlns="http://www.w3.org/2000/svg"
   viewBox="0 0 944.88 453.54666"
   height="453.54666"
   width="944.88"
   xml:space="preserve"
   id="svg2"
   version="1.1"><metadata
     id="metadata8"><rdf:RDF><cc:Work
         rdf:about=""><dc:format>image/svg+xml</dc:format><dc:type
           rdf:resource="http://purl.org/dc/dcmitype/StillImage" /></cc:Work></rdf:RDF></metadata><defs
     id="defs6" /><g
     transform="matrix(1.3333333,0,0,-1.3333333,0,453.54667)"
     id="g10"><g
       transform="scale(0.1)"
       id="g12"><path
         id="path14"
         style="fill:none;stroke:#69b3d6;stroke-width:30;stroke-linecap:butt;stroke-linejoin:miter;stroke-miterlimit:4;stroke-dasharray:none;stroke-opacity:1"
         d="M 316.813,3134.36 V 253.031 H 2716.26 V 3134.36 Z" /><path
         id="path16"
         style="fill:none;stroke:#69b3d6;stroke-width:30;stroke-linecap:butt;stroke-linejoin:miter;stroke-miterlimit:4;stroke-dasharray:none;stroke-opacity:1"
         d="M 4437.05,3110.27 V 228.93 H 6836.5 v 2881.34 z" /><g
         transform="scale(10)"
         id="g18"><text
           id="text22"
           style="font-variant:normal;font-weight:bold;font-size:24px;font-family:MinionPro;-inkscape-font-specification:MinionPro-Bold;writing-mode:lr-tb;fill:#4884ba;fill-opacity:1;fill-rule:nonzero;stroke:none"
           transform="matrix(1,0,0,-1,47.2719,281.323)"><tspan
             id="tspan20"
             y="0"
             x="0 14.2562 33.048199 48.024403 59.8325 68.664413 84.888412 101.83241 115.05641 120.26441 136.75191 154.82401 170.64001 184.58401 189.79201 412.02301 426.27924 445.07123 460.04742 471.85547 480.68738 496.91138 513.85535 527.07935 532.28735 548.7749 566.84698 582.66296 596.60699 601.815">PHYSICAL CORE APHYSICAL CORE B</tspan></text>
</g><path
         id="path24"
         style="fill:#4884ba;fill-opacity:1;fill-rule:nonzero;stroke:none"
         d="M 472.719,2484.48 V 425.191 H 2560.35 V 2484.48 H 472.719" /><path
         id="path26"
         style="fill:#4884ba;fill-opacity:1;fill-rule:nonzero;stroke:none"
         d="M 4592.95,2460.39 V 401.102 H 6680.59 V 2460.39 H 4592.95" /><g
         transform="scale(10)"
         id="g28"><text
           id="text34"
           style="font-variant:normal;font-weight:bold;font-size:18px;font-family:MinionPro;-inkscape-font-specification:MinionPro-Bold;writing-mode:lr-tb;fill:#ffffff;fill-opacity:1;fill-rule:nonzero;stroke:none"
           transform="matrix(1,0,0,-1,119.906,139.908)"><tspan
             id="tspan30"
             y="0"
             x="0 12.167899 24.335899 35.478001 49.032089">ACTOR</tspan><tspan
             id="tspan32"
             y="2.4101601"
             x="412.02301 424.19092 436.35892 447.50092 461.05502">ACTOR</tspan></text>
</g><path
         id="path36"
         style="fill:#aec7d9;fill-opacity:1;fill-rule:nonzero;stroke:none"
         d="m 3061.83,1590.15 v -270.63 h 330.16 v 270.63 h -330.16" /><path
         id="path38"
         style="fill:none;stroke:#4884ba;stroke-width:20;stroke-linecap:butt;stroke-linejoin:miter;stroke-miterlimit:4;stroke-dasharray:none;stroke-opacity:1"
         d="m 3061.83,1590.15 v -270.63 h 330.16 v 270.63 z" /><path
         id="path40"
         style="fill:#aec7d9;fill-opacity:1;fill-rule:nonzero;stroke:none"
         d="m 3411.16,1590.15 v -270.63 h 330.16 v 270.63 h -330.16" /><path
         id="path42"
         style="fill:none;stroke:#4884ba;stroke-width:20;stroke-linecap:butt;stroke-linejoin:miter;stroke-miterlimit:4;stroke-dasharray:none;stroke-opacity:1"
         d="m 3411.16,1590.15 v -270.63 h 330.16 v 270.63 z" /><path
         id="path44"
         style="fill:#aec7d9;fill-opacity:1;fill-rule:nonzero;stroke:none"
         d="m 3761.32,1590.15 v -270.63 h 330.16 v 270.63 h -330.16" /><path
         id="path46"
         style="fill:none;stroke:#4884ba;stroke-width:20;stroke-linecap:butt;stroke-linejoin:miter;stroke-miterlimit:4;stroke-dasharray:none;stroke-opacity:1"
         d="m 3761.32,1590.15 v -270.63 h 330.16 v 270.63 z" /><g
         transform="scale(10)"
         id="g48"><text
           id="text54"
           style="font-variant:normal;font-weight:bold;font-size:20px;font-family:MinionPro;-inkscape-font-specification:MinionPro-Bold;writing-mode:lr-tb;fill:#4884ba;fill-opacity:1;fill-rule:nonzero;stroke:none"
           transform="matrix(1,0,0,-1,319.498,167.444)"><tspan
             id="tspan50"
             y="0"
             x="0 11.62 25.84 37.459999 52.259998 65.25898">EVENTS</tspan><tspan
             id="tspan52"
             y="56.558998"
             x="16.1738 28.053995 35.613995 47.49419">PIPE</tspan></text>
</g><path
         id="path56"
         style="fill:#5a94c9;fill-opacity:1;fill-rule:nonzero;stroke:none"
         d="m 3226.91,1394.98 c 33.06,0 59.86,26.8 59.86,59.86 0,33.06 -26.8,59.86 -59.86,59.86 -33.06,0 -59.86,-26.8 -59.86,-59.86 0,-33.06 26.8,-59.86 59.86,-59.86" /><path
         id="path58"
         style="fill:#5a94c9;fill-opacity:1;fill-rule:nonzero;stroke:none"
         d="m 3925.57,1514.7 c -33.06,0 -59.86,-26.8 -59.86,-59.86 0,-33.06 26.8,-59.86 59.86,-59.86 33.06,0 59.86,26.8 59.86,59.86 0,33.06 -26.8,59.86 -59.86,59.86" /><path
         id="path60"
         style="fill:none;stroke:#5a94c9;stroke-width:40;stroke-linecap:butt;stroke-linejoin:miter;stroke-miterlimit:4;stroke-dasharray:none;stroke-opacity:1"
         d="m 3176.22,1440 c -39.68,-18.43 -109.13,-36.86 -175.75,-41.11 -66.61,-4.25 -137.48,2.84 -208.34,22.68" /><path
         id="path62"
         style="fill:none;stroke:#5a94c9;stroke-width:40;stroke-linecap:butt;stroke-linejoin:miter;stroke-miterlimit:4;stroke-dasharray:none;stroke-opacity:1"
         d="m 3976.26,1469.68 c 39.68,18.43 109.13,36.85 175.75,41.1 66.61,4.25 137.48,-2.83 208.34,-22.67" /><path
         id="path64"
         style="fill:#5a94c9;fill-opacity:1;fill-rule:nonzero;stroke:none"
         d="m 2813.1,1417.92 29.34,40.22 -115.51,-4.82 90.14,-92.13 -3.97,56.73" /><path
         id="path66"
         style="fill:none;stroke:#5a94c9;stroke-width:10;stroke-linecap:butt;stroke-linejoin:miter;stroke-miterlimit:4;stroke-dasharray:none;stroke-opacity:1"
         d="m 2813.1,1417.92 29.34,40.22 -115.51,-4.82 90.14,-92.13 z" /><path
         id="path68"
         style="fill:#5a94c9;fill-opacity:1;fill-rule:nonzero;stroke:none"
         d="m 4339.38,1491.75 -29.34,-40.21 115.51,4.82 -90.14,92.12 3.97,-56.73" /><path
         id="path70"
         style="fill:none;stroke:#5a94c9;stroke-width:10;stroke-linecap:butt;stroke-linejoin:miter;stroke-miterlimit:4;stroke-dasharray:none;stroke-opacity:1"
         d="m 4339.38,1491.75 -29.34,-40.21 115.51,4.82 -90.14,92.12 z" /></g></g></svg>