<?xml version="1.0" encoding="UTF-8" standalone="no"?>
<svg
   xmlns:dc="http://purl.org/dc/elements/1.1/"
   xmlns:cc="http://creativecommons.org/ns#"
   xmlns:rdf="http://www.w3.org/1999/02/22-rdf-syntax-ns#"
   xmlns:svg="http://www.w3.org/2000/svg"
   xmlns="http://www.w3.org/2000/svg"
   viewBox="0 0 755.90668 1058.2667"
   height="1058.2667"
   width="755.90668"
   xml:space="preserve"
   id="svg2"
   version="1.1"><metadata
     id="metadata8"><rdf:RDF><cc:Work
         rdf:about=""><dc:format>image/svg+xml</dc:format><dc:type
           rdf:resource="http://purl.org/dc/dcmitype/StillImage" /></cc:Work></rdf:RDF></metadata><defs
     id="defs6"><clipPath
       id="clipPath48"
       clipPathUnits="userSpaceOnUse"><path
         id="path46"
         d="M 941.57,5451.91 1956,4437.48 2970.43,5451.91 1956,6466.34 Z" /></clipPath><linearGradient
       id="linearGradient56"
       spreadMethod="pad"
       gradientTransform="matrix(0,2057.14,2057.14,0,1956,4423.34)"
       gradientUnits="userSpaceOnUse"
       y2="0"
       x2="1"
       y1="0"
       x1="0"><stop
         id="stop50"
         offset="0"
         style="stop-opacity:1;stop-color:#6c92d3" /><stop
         id="stop52"
         offset="0.983425"
         style="stop-opacity:1;stop-color:#73a2dc" /><stop
         id="stop54"
         offset="1"
         style="stop-opacity:1;stop-color:#73a2dc" /></linearGradient><linearGradient
       id="linearGradient66"
       spreadMethod="pad"
       gradientTransform="matrix(0,-2057.14,2057.14,0,1956,-3629.64)"
       gradientUnits="userSpaceOnUse"
       y2="0"
       x2="1"
       y1="0"
       x1="0"><stop
         id="stop60"
         offset="0"
         style="stop-opacity:1;stop-color:#4b66a8" /><stop
         id="stop62"
         offset="0.00552486"
         style="stop-opacity:1;stop-color:#4b66a8" /><stop
         id="stop64"
         offset="1"
         style="stop-opacity:1;stop-color:#5073a2" /></linearGradient><clipPath
       id="clipPath76"
       clipPathUnits="userSpaceOnUse"><path
         id="path74"
         d="m 980.586,7535.7 c 0,0 -208.266,0 -208.266,-208.27 V 7092 c 0,0 0,-208.27 208.266,-208.27 H 2931.41 c 0,0 208.27,0 208.27,208.27 v 235.43 c 0,0 0,208.27 -208.27,208.27 z" /></clipPath><linearGradient
       id="linearGradient84"
       spreadMethod="pad"
       gradientTransform="matrix(0,671.969,671.969,0,762.319,6873.73)"
       gradientUnits="userSpaceOnUse"
       y2="0"
       x2="1"
       y1="0"
       x1="0"><stop
         id="stop78"
         offset="0"
         style="stop-opacity:1;stop-color:#6c92d3" /><stop
         id="stop80"
         offset="0.983425"
         style="stop-opacity:1;stop-color:#73a2dc" /><stop
         id="stop82"
         offset="1"
         style="stop-opacity:1;stop-color:#73a2dc" /></linearGradient><linearGradient
       id="linearGradient94"
       spreadMethod="pad"
       gradientTransform="matrix(0,-671.969,671.969,0,762.319,-6080.03)"
       gradientUnits="userSpaceOnUse"
       y2="0"
       x2="1"
       y1="0"
       x1="0"><stop
         id="stop88"
         offset="0"
         style="stop-opacity:1;stop-color:#4b66a8" /><stop
         id="stop90"
         offset="0.00552486"
         style="stop-opacity:1;stop-color:#4b66a8" /><stop
         id="stop92"
         offset="1"
         style="stop-opacity:1;stop-color:#5073a2" /></linearGradient><clipPath
       id="clipPath104"
       clipPathUnits="userSpaceOnUse"><path
         id="path102"
         d="m 3618.39,1051.42 c 0,0 -120.47,0 -120.47,-120.471 V 666.418 c 0,0 0,-120.477 120.47,-120.477 h 1535.58 c 0,0 120.48,0 120.48,120.477 v 264.531 c 0,0 0,120.471 -120.48,120.471 z" /></clipPath><linearGradient
       id="linearGradient112"
       spreadMethod="pad"
       gradientTransform="matrix(0,525.477,525.477,0,3487.92,535.94)"
       gradientUnits="userSpaceOnUse"
       y2="0"
       x2="1"
       y1="0"
       x1="0"><stop
         id="stop106"
         offset="0"
         style="stop-opacity:1;stop-color:#6c92d3" /><stop
         id="stop108"
         offset="0.983425"
         style="stop-opacity:1;stop-color:#73a2dc" /><stop
         id="stop110"
         offset="1"
         style="stop-opacity:1;stop-color:#73a2dc" /></linearGradient><linearGradient
       id="linearGradient122"
       spreadMethod="pad"
       gradientTransform="matrix(0,-525.477,525.477,0,3487.92,257.76)"
       gradientUnits="userSpaceOnUse"
       y2="0"
       x2="1"
       y1="0"
       x1="0"><stop
         id="stop116"
         offset="0"
         style="stop-opacity:1;stop-color:#4b66a8" /><stop
         id="stop118"
         offset="0.00552486"
         style="stop-opacity:1;stop-color:#4b66a8" /><stop
         id="stop120"
         offset="1"
         style="stop-opacity:1;stop-color:#5073a2" /></linearGradient><clipPath
       id="clipPath132"
       clipPathUnits="userSpaceOnUse"><path
         id="path130"
         d="m 930.742,3961.18 c 0,0 -56.695,0 -56.695,-56.69 v -228.03 c 0,0 0,-56.69 56.695,-56.69 H 2981.26 c 0,0 56.69,0 56.69,56.69 v 228.03 c 0,0 0,56.69 -56.69,56.69 z" /></clipPath><linearGradient
       id="linearGradient140"
       spreadMethod="pad"
       gradientTransform="matrix(0,361.417,361.417,0,864.048,3609.77)"
       gradientUnits="userSpaceOnUse"
       y2="0"
       x2="1"
       y1="0"
       x1="0"><stop
         id="stop134"
         offset="0"
         style="stop-opacity:1;stop-color:#6c92d3" /><stop
         id="stop136"
         offset="0.983425"
         style="stop-opacity:1;stop-color:#73a2dc" /><stop
         id="stop138"
         offset="1"
         style="stop-opacity:1;stop-color:#73a2dc" /></linearGradient><linearGradient
       id="linearGradient150"
       spreadMethod="pad"
       gradientTransform="matrix(0,-361.417,361.417,0,864.048,-2816.07)"
       gradientUnits="userSpaceOnUse"
       y2="0"
       x2="1"
       y1="0"
       x1="0"><stop
         id="stop144"
         offset="0"
         style="stop-opacity:1;stop-color:#4b66a8" /><stop
         id="stop146"
         offset="0.00552486"
         style="stop-opacity:1;stop-color:#4b66a8" /><stop
         id="stop148"
         offset="1"
         style="stop-opacity:1;stop-color:#5073a2" /></linearGradient><clipPath
       id="clipPath160"
       clipPathUnits="userSpaceOnUse"><path
         id="path158"
         d="m 930.742,3147.61 c 0,0 -56.695,0 -56.695,-56.69 v -457.61 c 0,0 0,-56.69 56.695,-56.69 H 2981.26 c 0,0 56.69,0 56.69,56.69 v 457.61 c 0,0 0,56.69 -56.69,56.69 z" /></clipPath><linearGradient
       id="linearGradient168"
       spreadMethod="pad"
       gradientTransform="matrix(0,590.993,590.993,0,864.048,2566.62)"
       gradientUnits="userSpaceOnUse"
       y2="0"
       x2="1"
       y1="0"
       x1="0"><stop
         id="stop162"
         offset="0"
         style="stop-opacity:1;stop-color:#6c92d3" /><stop
         id="stop164"
         offset="0.983425"
         style="stop-opacity:1;stop-color:#73a2dc" /><stop
         id="stop166"
         offset="1"
         style="stop-opacity:1;stop-color:#73a2dc" /></linearGradient><linearGradient
       id="linearGradient178"
       spreadMethod="pad"
       gradientTransform="matrix(0,-590.993,590.993,0,864.048,-1772.92)"
       gradientUnits="userSpaceOnUse"
       y2="0"
       x2="1"
       y1="0"
       x1="0"><stop
         id="stop172"
         offset="0"
         style="stop-opacity:1;stop-color:#4b66a8" /><stop
         id="stop174"
         offset="0.00552486"
         style="stop-opacity:1;stop-color:#4b66a8" /><stop
         id="stop176"
         offset="1"
         style="stop-opacity:1;stop-color:#5073a2" /></linearGradient><clipPath
       id="clipPath188"
       clipPathUnits="userSpaceOnUse"><path
         id="path186"
         d="m 930.742,2169.22 c 0,0 -56.695,0 -56.695,-56.7 v -301.26 c 0,0 0,-56.69 56.695,-56.69 H 2981.26 c 0,0 56.69,0 56.69,56.69 v 301.26 c 0,0 0,56.7 -56.69,56.7 z" /></clipPath><linearGradient
       id="linearGradient196"
       spreadMethod="pad"
       gradientTransform="matrix(0,434.646,434.646,0,864.048,1744.57)"
       gradientUnits="userSpaceOnUse"
       y2="0"
       x2="1"
       y1="0"
       x1="0"><stop
         id="stop190"
         offset="0"
         style="stop-opacity:1;stop-color:#6c92d3" /><stop
         id="stop192"
         offset="0.983425"
         style="stop-opacity:1;stop-color:#73a2dc" /><stop
         id="stop194"
         offset="1"
         style="stop-opacity:1;stop-color:#73a2dc" /></linearGradient><linearGradient
       id="linearGradient206"
       spreadMethod="pad"
       gradientTransform="matrix(0,-434.646,434.646,0,864.048,-950.87)"
       gradientUnits="userSpaceOnUse"
       y2="0"
       x2="1"
       y1="0"
       x1="0"><stop
         id="stop200"
         offset="0"
         style="stop-opacity:1;stop-color:#4b66a8" /><stop
         id="stop202"
         offset="0.00552486"
         style="stop-opacity:1;stop-color:#4b66a8" /><stop
         id="stop204"
         offset="1"
         style="stop-opacity:1;stop-color:#5073a2" /></linearGradient><clipPath
       id="clipPath216"
       clipPathUnits="userSpaceOnUse"><path
         id="path214"
         d="m 930.742,1413.31 c 0,0 -56.695,0 -56.695,-56.69 V 813.469 c 0,0 0,-56.699 56.695,-56.699 H 2981.26 c 0,0 56.69,0 56.69,56.699 v 543.151 c 0,0 0,56.69 -56.69,56.69 z" /></clipPath><linearGradient
       id="linearGradient224"
       spreadMethod="pad"
       gradientTransform="matrix(0,676.535,676.535,0,864.048,746.77)"
       gradientUnits="userSpaceOnUse"
       y2="0"
       x2="1"
       y1="0"
       x1="0"><stop
         id="stop218"
         offset="0"
         style="stop-opacity:1;stop-color:#6c92d3" /><stop
         id="stop220"
         offset="0.983425"
         style="stop-opacity:1;stop-color:#73a2dc" /><stop
         id="stop222"
         offset="1"
         style="stop-opacity:1;stop-color:#73a2dc" /></linearGradient><linearGradient
       id="linearGradient234"
       spreadMethod="pad"
       gradientTransform="matrix(0,-676.535,676.535,0,864.048,46.93)"
       gradientUnits="userSpaceOnUse"
       y2="0"
       x2="1"
       y1="0"
       x1="0"><stop
         id="stop228"
         offset="0"
         style="stop-opacity:1;stop-color:#4b66a8" /><stop
         id="stop230"
         offset="0.00552486"
         style="stop-opacity:1;stop-color:#4b66a8" /><stop
         id="stop232"
         offset="1"
         style="stop-opacity:1;stop-color:#5073a2" /></linearGradient></defs><g
     transform="matrix(1.3333333,0,0,-1.3333333,0,1058.2667)"
     id="g10"><g
       transform="scale(0.1)"
       id="g12"><path
         id="path14"
         style="fill:#6d9dd7;fill-opacity:1;fill-rule:nonzero;stroke:none"
         d="m 1956,6480.48 63.97,115.74 -65.4,-17.29 -62.54,17.29 63.97,-115.74" /><path
         id="path16"
         style="fill:#6d9dd7;fill-opacity:1;fill-rule:nonzero;stroke:none"
         d="m 1956,3971.18 63.97,115.74 -65.4,-17.29 -62.54,17.29 63.97,-115.74" /><path
         id="path18"
         style="fill:#6d9dd7;fill-opacity:1;fill-rule:nonzero;stroke:none"
         d="m 1956,3157.61 63.97,115.74 -65.4,-17.3 -62.54,17.3 63.97,-115.74" /><path
         id="path20"
         style="fill:#6d9dd7;fill-opacity:1;fill-rule:nonzero;stroke:none"
         d="m 1956,2179.21 63.97,115.74 -65.4,-17.29 -62.54,17.29 63.97,-115.74" /><path
         id="path22"
         style="fill:#6d9dd7;fill-opacity:1;fill-rule:nonzero;stroke:none"
         d="m 1956,1423.31 63.97,115.74 -65.4,-17.3 -62.54,17.3 63.97,-115.74" /><path
         id="path24"
         style="fill:#6d9dd7;fill-opacity:1;fill-rule:nonzero;stroke:none"
         d="m 4386.18,1061.42 63.97,115.74 -65.39,-17.3 -62.55,17.3 63.97,-115.74" /><path
         id="path26"
         style="fill:#6d9dd7;fill-opacity:1;fill-rule:nonzero;stroke:none"
         d="m 927.426,5451.11 -56.903,38.93 8.504,-38.98 -8.504,-37.27 56.903,37.32" /><path
         id="path28"
         style="fill:none;stroke:#6d9dd7;stroke-width:30;stroke-linecap:butt;stroke-linejoin:miter;stroke-miterlimit:4;stroke-dasharray:none;stroke-opacity:1"
         d="M 1956,6873.73 V 6538.35" /><path
         id="path30"
         style="fill:none;stroke:#6d9dd7;stroke-width:30;stroke-linecap:butt;stroke-linejoin:miter;stroke-miterlimit:4;stroke-dasharray:none;stroke-opacity:1"
         d="m 2938.58,5453.16 h 1462.6" /><path
         id="path32"
         style="fill:none;stroke:#6d9dd7;stroke-width:30;stroke-linecap:butt;stroke-linejoin:miter;stroke-miterlimit:4;stroke-dasharray:none;stroke-opacity:1"
         d="M 1956,3615.43 V 3215.48" /><path
         id="path34"
         style="fill:none;stroke:#6d9dd7;stroke-width:30;stroke-linecap:butt;stroke-linejoin:miter;stroke-miterlimit:4;stroke-dasharray:none;stroke-opacity:1"
         d="M 1956,2576.54 V 2237.09" /><path
         id="path36"
         style="fill:none;stroke:#6d9dd7;stroke-width:30;stroke-linecap:butt;stroke-linejoin:miter;stroke-miterlimit:4;stroke-dasharray:none;stroke-opacity:1"
         d="M 1956,1753.07 V 1481.18" /><path
         id="path38"
         style="fill:none;stroke:#6d9dd7;stroke-width:30;stroke-linecap:butt;stroke-linejoin:miter;stroke-miterlimit:4;stroke-dasharray:none;stroke-opacity:1"
         d="M 1956,757.398 V 450.379" /><path
         id="path40"
         style="fill:none;stroke:#6d9dd7;stroke-width:30;stroke-linecap:butt;stroke-linejoin:miter;stroke-miterlimit:4;stroke-dasharray:none;stroke-opacity:1"
         d="M 1956,4468.66 V 4029.05" /><g
         id="g42"><g
           clip-path="url(#clipPath48)"
           id="g44"><path
             id="path58"
             style="fill:url(#linearGradient56);fill-opacity:1;fill-rule:nonzero;stroke:none"
             d="M 941.57,5451.91 1956,4437.48 2970.43,5451.91 1956,6466.34 941.57,5451.91" /></g></g><path
         id="path68"
         style="fill:none;stroke:url(#linearGradient66);stroke-width:20;stroke-linecap:butt;stroke-linejoin:miter;stroke-miterlimit:4;stroke-dasharray:none;stroke-opacity:1"
         d="M 941.57,5451.91 1956,4437.48 2970.43,5451.91 1956,6466.34 Z" /><g
         id="g70"><g
           clip-path="url(#clipPath76)"
           id="g72"><path
             id="path86"
             style="fill:url(#linearGradient84);fill-opacity:1;fill-rule:nonzero;stroke:none"
             d="m 980.586,7535.7 c 0,0 -208.266,0 -208.266,-208.27 V 7092 c 0,0 0,-208.27 208.266,-208.27 H 2931.41 c 0,0 208.27,0 208.27,208.27 v 235.43 c 0,0 0,208.27 -208.27,208.27 H 980.586" /></g></g><path
         id="path96"
         style="fill:none;stroke:url(#linearGradient94);stroke-width:20;stroke-linecap:butt;stroke-linejoin:miter;stroke-miterlimit:4;stroke-dasharray:none;stroke-opacity:1"
         d="m 980.586,7535.7 c 0,0 -208.266,0 -208.266,-208.27 V 7092 c 0,0 0,-208.27 208.266,-208.27 H 2931.41 c 0,0 208.27,0 208.27,208.27 v 235.43 c 0,0 0,208.27 -208.27,208.27 z" /><g
         id="g98"><g
           clip-path="url(#clipPath104)"
           id="g100"><path
             id="path114"
             style="fill:url(#linearGradient112);fill-opacity:1;fill-rule:nonzero;stroke:none"
             d="m 3618.39,1051.42 c 0,0 -120.47,0 -120.47,-120.471 V 666.418 c 0,0 0,-120.477 120.47,-120.477 h 1535.58 c 0,0 120.48,0 120.48,120.477 v 264.531 c 0,0 0,120.471 -120.48,120.471 H 3618.39" /></g></g><path
         id="path124"
         style="fill:none;stroke:url(#linearGradient122);stroke-width:20;stroke-linecap:butt;stroke-linejoin:miter;stroke-miterlimit:4;stroke-dasharray:none;stroke-opacity:1"
         d="m 3618.39,1051.42 c 0,0 -120.47,0 -120.47,-120.471 V 666.418 c 0,0 0,-120.477 120.47,-120.477 h 1535.58 c 0,0 120.48,0 120.48,120.477 v 264.531 c 0,0 0,120.471 -120.48,120.471 z" /><g
         id="g126"><g
           clip-path="url(#clipPath132)"
           id="g128"><path
             id="path142"
             style="fill:url(#linearGradient140);fill-opacity:1;fill-rule:nonzero;stroke:none"
             d="m 930.742,3961.18 c 0,0 -56.695,0 -56.695,-56.69 v -228.03 c 0,0 0,-56.69 56.695,-56.69 H 2981.26 c 0,0 56.69,0 56.69,56.69 v 228.03 c 0,0 0,56.69 -56.69,56.69 H 930.742" /></g></g><path
         id="path152"
         style="fill:none;stroke:url(#linearGradient150);stroke-width:20;stroke-linecap:butt;stroke-linejoin:miter;stroke-miterlimit:4;stroke-dasharray:none;stroke-opacity:1"
         d="m 930.742,3961.18 c 0,0 -56.695,0 -56.695,-56.69 v -228.03 c 0,0 0,-56.69 56.695,-56.69 H 2981.26 c 0,0 56.69,0 56.69,56.69 v 228.03 c 0,0 0,56.69 -56.69,56.69 z" /><g
         id="g154"><g
           clip-path="url(#clipPath160)"
           id="g156"><path
             id="path170"
             style="fill:url(#linearGradient168);fill-opacity:1;fill-rule:nonzero;stroke:none"
             d="m 930.742,3147.61 c 0,0 -56.695,0 -56.695,-56.69 v -457.61 c 0,0 0,-56.69 56.695,-56.69 H 2981.26 c 0,0 56.69,0 56.69,56.69 v 457.61 c 0,0 0,56.69 -56.69,56.69 H 930.742" /></g></g><path
         id="path180"
         style="fill:none;stroke:url(#linearGradient178);stroke-width:20;stroke-linecap:butt;stroke-linejoin:miter;stroke-miterlimit:4;stroke-dasharray:none;stroke-opacity:1"
         d="m 930.742,3147.61 c 0,0 -56.695,0 -56.695,-56.69 v -457.61 c 0,0 0,-56.69 56.695,-56.69 H 2981.26 c 0,0 56.69,0 56.69,56.69 v 457.61 c 0,0 0,56.69 -56.69,56.69 z" /><g
         id="g182"><g
           clip-path="url(#clipPath188)"
           id="g184"><path
             id="path198"
             style="fill:url(#linearGradient196);fill-opacity:1;fill-rule:nonzero;stroke:none"
             d="m 930.742,2169.22 c 0,0 -56.695,0 -56.695,-56.7 v -301.26 c 0,0 0,-56.69 56.695,-56.69 H 2981.26 c 0,0 56.69,0 56.69,56.69 v 301.26 c 0,0 0,56.7 -56.69,56.7 H 930.742" /></g></g><path
         id="path208"
         style="fill:none;stroke:url(#linearGradient206);stroke-width:20;stroke-linecap:butt;stroke-linejoin:miter;stroke-miterlimit:4;stroke-dasharray:none;stroke-opacity:1"
         d="m 930.742,2169.22 c 0,0 -56.695,0 -56.695,-56.7 v -301.26 c 0,0 0,-56.69 56.695,-56.69 H 2981.26 c 0,0 56.69,0 56.69,56.69 v 301.26 c 0,0 0,56.7 -56.69,56.7 z" /><g
         id="g210"><g
           clip-path="url(#clipPath216)"
           id="g212"><path
             id="path226"
             style="fill:url(#linearGradient224);fill-opacity:1;fill-rule:nonzero;stroke:none"
             d="m 930.742,1413.31 c 0,0 -56.695,0 -56.695,-56.69 V 813.469 c 0,0 0,-56.699 56.695,-56.699 H 2981.26 c 0,0 56.69,0 56.69,56.699 v 543.151 c 0,0 0,56.69 -56.69,56.69 H 930.742" /></g></g><path
         id="path236"
         style="fill:none;stroke:url(#linearGradient234);stroke-width:20;stroke-linecap:butt;stroke-linejoin:miter;stroke-miterlimit:4;stroke-dasharray:none;stroke-opacity:1"
         d="m 930.742,1413.31 c 0,0 -56.695,0 -56.695,-56.69 V 813.469 c 0,0 0,-56.699 56.695,-56.699 H 2981.26 c 0,0 56.69,0 56.69,56.699 v 543.151 c 0,0 0,56.69 -56.69,56.69 z" /><path
         id="path238"
         style="fill:none;stroke:#6d9dd7;stroke-width:30;stroke-linecap:butt;stroke-linejoin:miter;stroke-miterlimit:4;stroke-dasharray:none;stroke-opacity:1"
         d="M 384.844,5451.91 H 892.813" /><path
         id="path240"
         style="fill:none;stroke:#6d9dd7;stroke-width:30;stroke-linecap:butt;stroke-linejoin:miter;stroke-miterlimit:4;stroke-dasharray:none;stroke-opacity:1"
         d="M 384.844,465.379 H 1971" /><path
         id="path242"
         style="fill:none;stroke:#6d9dd7;stroke-width:30;stroke-linecap:butt;stroke-linejoin:miter;stroke-miterlimit:4;stroke-dasharray:none;stroke-opacity:1"
         d="M 4386.18,5468.16 V 1119.29" /><path
         id="path244"
         style="fill:none;stroke:#6d9dd7;stroke-width:30;stroke-linecap:butt;stroke-linejoin:miter;stroke-miterlimit:4;stroke-dasharray:none;stroke-opacity:1"
         d="M 399.844,5466.91 V 450.379" /><g
         transform="scale(10)"
         id="g246"><text
           id="text250"
           style="font-variant:normal;font-weight:bold;font-size:24px;font-family:Arial;-inkscape-font-specification:Arial-BoldMT;writing-mode:lr-tb;fill:#ffffff;fill-opacity:1;fill-rule:nonzero;stroke:none"
           transform="matrix(1,0,0,-1,84.5098,711.457)"><tspan
             id="tspan248"
             y="0"
             x="0 17.327999 36 53.327999 69.335999 76.008003 98.664001 117.336 134.664 151.992 166.65601 181.32001 199.992">CORE WORKFLOW</tspan></text>
<text
           id="text256"
           style="font-variant:normal;font-weight:bold;font-size:20px;font-family:Arial;-inkscape-font-specification:Arial-BoldMT;writing-mode:lr-tb;fill:#ffffff;fill-opacity:1;fill-rule:nonzero;stroke:none"
           transform="matrix(1,0,0,-1,112.1922,539.018)"><tspan
             id="tspan252"
             y="0"
             x="0 14.44 28.879999 42.220001 47.041012 61.48101 75.921013 87.782806 103.3428 117.78281 124.4428 137.78281 144.44281 150.00281">HAS ACTOR(S) ?</tspan><tspan
             id="tspan254"
             y="166.903"
             x="-3.8910201 10.54898 23.888981 38.328979 51.66898 57.228981 70.568977 83.908981 89.468979 102.80898 116.14898 129.48898 143.92899 156.14899">RECEIVE EVENTS</tspan></text>
<text
           id="text260"
           style="font-variant:normal;font-weight:bold;font-size:24px;font-family:Arial;-inkscape-font-specification:Arial-BoldMT;writing-mode:lr-tb;fill:#ffffff;fill-opacity:1;fill-rule:nonzero;stroke:none"
           transform="matrix(1,0,0,-1,411.94618,70.686)"><tspan
             id="tspan258"
             y="0"
             x="0 16.007999 32.015999 38.688">EXIT</tspan></text>
<text
           id="text272"
           style="font-variant:normal;font-weight:bold;font-size:20px;font-family:Arial;-inkscape-font-specification:Arial-BoldMT;writing-mode:lr-tb;fill:#ffffff;fill-opacity:1;fill-rule:nonzero;stroke:none"
           transform="matrix(1,0,0,-1,92.56218,188.628)"><tspan
             id="tspan262"
             y="0"
             x="0 12.22 24.440001 38.880001 52.220001 66.660004 72.220001 85.559998 98.900002 112.24 126.68 138.89999 152.24001 157.8 171.14 176.7 190.03999">FLUSH EVENTS PIPE</tspan><tspan
             id="tspan264"
             y="76.7621"
             x="28.394501 42.834499 56.1745 72.834503 88.394501 101.7345 115.0745 120.6345 135.07449 148.41451 162.85451">REMOVE DEAD</tspan><tspan
             id="tspan266"
             y="100.7621"
             x="60.8074 75.247398 89.687401 101.54959 117.10959 131.54959">ACTORS</tspan><tspan
             id="tspan268"
             y="-101.8209"
             x="38.914398 53.354401 67.794403 79.657372 95.217369 109.65737 115.21737 131.87737 146.31737 151.87737 166.31737">ACTOR MAIN </tspan><tspan
             id="tspan270"
             y="-77.8209"
             x="47.069481 61.50948 75.949478 88.169479 100.38948 114.82948 129.26949 143.70947">CALLBACK</tspan></text>
</g><g
         transform="scale(10)"
         id="g274"><text
           id="text280"
           style="font-variant:normal;font-weight:bold;font-size:18px;font-family:Arial;-inkscape-font-specification:Arial-BoldMT;writing-mode:lr-tb;fill:#6d9dd7;fill-opacity:1;fill-rule:nonzero;stroke:none"
           transform="matrix(1,0,0,-1,200.828,426.691)"><tspan
             id="tspan276"
             y="0"
             x="0 12.006 24.011999">YES</tspan><tspan
             id="tspan278"
             y="-125.291"
             x="101.416 114.415">NO</tspan></text>
</g></g></g></svg>